<?xml version="1.0" encoding="UTF-8"?>
<svg xmlns="http://www.w3.org/2000/svg" viewBox="0 0 660 420" width="660" height="420">
  <rect width="660" height="420" fill="#fafafa" rx="6"/>

  <!-- Title — centred in 660px viewBox -->
  <text x="330" y="22" font-size="12" font-family="Helvetica,Arial,sans-serif"
    fill="#222" text-anchor="middle" font-weight="bold">SCRS Radar — facebook/react</text>
  <text x="330" y="38" font-size="9.5" font-family="Helvetica,Arial,sans-serif"
    fill="#888" text-anchor="middle">Composite Score: 38/100 → Grade B</text>

  <!-- Grid -->
  <polygon points="265.00,201.60 292.01,221.22 281.69,252.98 248.31,252.98 237.99,221.22" fill="none" stroke="#e0e0e0" stroke-width="1"/>
  <polygon points="265.00,173.20 319.02,212.45 298.39,275.95 231.61,275.95 210.98,212.45" fill="none" stroke="#e0e0e0" stroke-width="1"/>
  <polygon points="265.00,144.80 346.03,203.67 315.08,298.93 214.92,298.93 183.97,203.67" fill="none" stroke="#e0e0e0" stroke-width="1"/>
  <polygon points="265.00,116.40 373.04,194.90 331.77,321.90 198.23,321.90 156.96,194.90" fill="none" stroke="#e0e0e0" stroke-width="1"/>
  <polygon points="265.00,88.00 400.05,186.12 348.47,344.88 181.53,344.88 129.95,186.12" fill="none" stroke="#e0e0e0" stroke-width="1"/>

  <!-- Grade B threshold (dashed green) -->
  <polygon points="265.00,174.62 317.67,212.89 297.55,274.80 232.45,274.80 212.33,212.89" fill="none" stroke="#22aa55" stroke-width="1.5" stroke-dasharray="6 3"/>
  <!-- Grade F threshold (outer red) -->
  <polygon points="265.00,88.00 400.05,186.12 348.47,344.88 181.53,344.88 129.95,186.12" fill="none" stroke="#cc3333" stroke-width="1.2"/>

  <!-- Axes -->
  <line x1="265" y1="230" x2="265.00" y2="88.00" stroke="#cccccc" stroke-width="1"/>
  <line x1="265" y1="230" x2="400.05" y2="186.12" stroke="#cccccc" stroke-width="1"/>
  <line x1="265" y1="230" x2="348.47" y2="344.88" stroke="#cccccc" stroke-width="1"/>
  <line x1="265" y1="230" x2="181.53" y2="344.88" stroke="#cccccc" stroke-width="1"/>
  <line x1="265" y1="230" x2="129.95" y2="186.12" stroke="#cccccc" stroke-width="1"/>

  <!-- Score polygon -->
  <polygon points="265.00,170.36 302.81,217.71 280.02,250.68 219.09,293.18 217.73,214.64" fill="rgba(26,74,138,0.18)" stroke="#1a4a8a" stroke-width="2.5"/>

  <!-- Dots -->
  <circle cx="265.00" cy="170.36" r="5" fill="#1a4a8a" stroke="white" stroke-width="1.5"/>
  <circle cx="302.81" cy="217.71" r="5" fill="#1a4a8a" stroke="white" stroke-width="1.5"/>
  <circle cx="280.02" cy="250.68" r="5" fill="#1a4a8a" stroke="white" stroke-width="1.5"/>
  <circle cx="219.09" cy="293.18" r="5" fill="#1a4a8a" stroke="white" stroke-width="1.5"/>
  <circle cx="217.73" cy="214.64" r="5" fill="#1a4a8a" stroke="white" stroke-width="1.5"/>

  <!-- Grid value labels -->
  <text x="272" y="204.60"
      font-size="8" font-family="Helvetica,Arial,sans-serif" fill="#bbb" text-anchor="start">20</text>
  <text x="272" y="176.20"
      font-size="8" font-family="Helvetica,Arial,sans-serif" fill="#bbb" text-anchor="start">40</text>
  <text x="272" y="147.80"
      font-size="8" font-family="Helvetica,Arial,sans-serif" fill="#bbb" text-anchor="start">60</text>
  <text x="272" y="119.40"
      font-size="8" font-family="Helvetica,Arial,sans-serif" fill="#bbb" text-anchor="start">80</text>
  <text x="272" y="91.00"
      font-size="8" font-family="Helvetica,Arial,sans-serif" fill="#bbb" text-anchor="start">100</text>

  <!-- Axis labels — rendered last so nothing covers them -->
  <text x="265.00" y="62.44" font-size="10.5"
      font-family="Helvetica,Arial,sans-serif" fill="#333" text-anchor="middle"
      dominant-baseline="middle" font-weight="bold">Vulnerability (V)</text>
  <text x="424.36" y="178.22" font-size="10.5"
      font-family="Helvetica,Arial,sans-serif" fill="#333" text-anchor="start"
      dominant-baseline="middle" font-weight="bold">Freshness (F)</text>
  <text x="363.49" y="365.56" font-size="10.5"
      font-family="Helvetica,Arial,sans-serif" fill="#333" text-anchor="start"
      dominant-baseline="middle" font-weight="bold">License (L)</text>
  <text x="166.51" y="365.56" font-size="10.5"
      font-family="Helvetica,Arial,sans-serif" fill="#333" text-anchor="end"
      dominant-baseline="middle" font-weight="bold">Maintainer (M)</text>
  <text x="105.64" y="178.22" font-size="10.5"
      font-family="Helvetica,Arial,sans-serif" fill="#333" text-anchor="end"
      dominant-baseline="middle" font-weight="bold">Transitive (T)</text>

  <!-- Score value labels -->
  <text x="265.00" y="187.40" font-size="9"
      font-family="Helvetica,Arial,sans-serif" fill="#1a4a8a" text-anchor="middle"
      dominant-baseline="middle" font-weight="bold">42</text>
  <text x="286.61" y="222.98" font-size="9"
      font-family="Helvetica,Arial,sans-serif" fill="#1a4a8a" text-anchor="middle"
      dominant-baseline="middle" font-weight="bold">28</text>
  <text x="270.01" y="236.89" font-size="9"
      font-family="Helvetica,Arial,sans-serif" fill="#1a4a8a" text-anchor="middle"
      dominant-baseline="middle" font-weight="bold">18</text>
  <text x="229.11" y="279.40" font-size="9"
      font-family="Helvetica,Arial,sans-serif" fill="#1a4a8a" text-anchor="middle"
      dominant-baseline="middle" font-weight="bold">55</text>
  <text x="233.94" y="219.91" font-size="9"
      font-family="Helvetica,Arial,sans-serif" fill="#1a4a8a" text-anchor="middle"
      dominant-baseline="middle" font-weight="bold">35</text>

  <!-- Grade badge — far right, verified clear of all axis labels (x=540–628, y=155–243) -->
  <rect x="540" y="155" width="88" height="88" rx="10" fill="#22aa55"/>
  <text x="584" y="212" font-size="52" font-family="Helvetica,Arial,sans-serif"
    fill="white" text-anchor="middle" font-weight="bold">B</text>
  <text x="584" y="256" font-size="10" font-family="Helvetica,Arial,sans-serif"
    fill="#1a7a3a" text-anchor="middle" font-weight="bold">SCRS: 38 / 100</text>

  <!-- Legend — BOTTOM horizontal strip, verified clear of all radar content (y=385–412) -->
  <rect x="12" y="385" width="636" height="28" rx="4" fill="white" stroke="#e0e0e0" stroke-width="1"/>
  <line x1="24" y1="399" x2="58" y2="399" stroke="#1a4a8a" stroke-width="2.5"/>
  <circle cx="41" cy="399" r="4" fill="#1a4a8a" stroke="white" stroke-width="1.5"/>
  <text x="65" y="403" font-size="9" font-family="Helvetica,Arial,sans-serif" fill="#333">SCRS profile</text>
  <line x1="200" y1="399" x2="234" y2="399" stroke="#22aa55" stroke-width="2" stroke-dasharray="6 3"/>
  <text x="241" y="403" font-size="9" font-family="Helvetica,Arial,sans-serif" fill="#333">Grade B threshold (score = 39)</text>
  <line x1="440" y1="399" x2="474" y2="399" stroke="#cc3333" stroke-width="1.5"/>
  <text x="481" y="403" font-size="9" font-family="Helvetica,Arial,sans-serif" fill="#333">Grade F threshold (score = 100)</text>
</svg>